<svg data-v-0dd9719b="" version="1.0" xmlns="http://www.w3.org/2000/svg" xmlns:xlink="http://www.w3.org/1999/xlink" width="100%" height="100%" viewBox="0 0 340.000000 250.000000" preserveAspectRatio="xMidYMid meet" color-interpolation-filters="sRGB" style="margin: auto;"> <rect data-v-0dd9719b="" x="0" y="0" width="100%" height="100%" fill="#ffffff" fill-opacity="1" class="background"></rect> <rect data-v-0dd9719b="" x="0" y="0" width="100%" height="100%" fill="url(#watermark)" fill-opacity="1" class="watermarklayer"></rect> <g data-v-0dd9719b="" fill="#333" class="icon-text-wrapper icon-svg-group iconsvg" transform="translate(48.040000915527344,98.19010925292969)"><g class="iconsvg-imagesvg" transform="translate(0,0)"><g><rect fill="#333" fill-opacity="0" stroke-width="2" x="0" y="0" width="60" height="53.61978212495197" class="image-rect"></rect> <svg x="0" y="0" width="60" height="53.61978212495197" filtersec="colorsb8184411147" class="image-svg-svg primary" style="overflow: visible;"><svg xmlns="http://www.w3.org/2000/svg" viewBox="0.015439921990036964 0.00016565322584938258 111.89912414550781 99.9998550415039"><g fill-rule="evenodd"><path d="M85.8 40.09L66 5.81a11.58 11.58 0 0 0-20.08 0l-12 20.77a5.44 5.44 0 0 0 4.71 8.16A5.43 5.43 0 0 0 43.36 32l7.9-13.68a5.44 5.44 0 0 1 9.42 0l12.56 21.77a5.45 5.45 0 0 1 0 5.44L67 56.4a5.43 5.43 0 0 0 4.71 8.15 5.49 5.49 0 0 0 2.71-.72 5.35 5.35 0 0 0 2-2l9.38-16.3a5.45 5.45 0 0 0 0-5.44z" fill="#f04b37"></path><path d="M51.2 45.61H26.08a5.43 5.43 0 0 0-4.71 2.72L1.58 82.62a11.57 11.57 0 0 0 10 17.38h25a5.44 5.44 0 0 0 4.71-8.16 5.43 5.43 0 0 0-4.71-2.72H19.8A5.43 5.43 0 0 1 15.09 81l12.56-21.79a5.45 5.45 0 0 1 4.71-2.72H51.2a5.44 5.44 0 0 0 4.71-2.71 5.44 5.44 0 0 0-4.71-8.17z" fill="#215fac"></path><path d="M110.35 82.62l-12-20.78a5.44 5.44 0 0 0-9.42 0 5.43 5.43 0 0 0 0 5.43L96.84 81a5.44 5.44 0 0 1-4.71 8.15H68a5.43 5.43 0 0 1-4.71-2.72l-5.77-10a5.43 5.43 0 0 0-8.36-1.31l-.18.17-.61.61c-2.27 2.84.27 6.75.3 6.92Q52.8 90 57 97.28a5.46 5.46 0 0 0 4.68 2.72h38.64a11.57 11.57 0 0 0 10.03-17.38z" fill="#227e3b"></path></g></svg></svg> <!----></g></g> <g transform="translate(67,4.503017425537109)"><g data-gra="path-name" fill-rule="" class="tp-name iconsvg-namesvg" transform="translate(0,0)"><g transform="scale(1)"><g><path d="M14.62-27.18L14.62-27.18Q18.67-27.18 21.75-25.8L21.75-25.8Q25.36-24.14 26.81-20.25L26.81-20.25Q27.95-17.21 27.95-13.12L27.95-13.12Q27.95-8.99 26.57-5.95L26.57-5.95Q24.83-2.35 21.22-0.89L21.22-0.89Q18.55 0.16 15.07 0.16L15.07 0.16Q10.49 0.16 7.13-1.54L7.13-1.54Q4.29-2.96 2.79-5.99 1.3-9.03 1.3-13.37L1.3-13.37Q1.3-21.1 5.14-24.38L5.14-24.38Q8.38-27.14 14.62-27.18ZM14.66-22.64L14.66-22.64Q10.69-22.64 8.99-20.05L8.99-20.05Q7.61-18.02 7.61-13.53L7.61-13.53Q7.61-8.79 9.32-6.56L9.32-6.56Q11.02-4.37 14.7-4.37L14.7-4.37Q18.27-4.37 19.95-6.6 21.63-8.83 21.63-13.49L21.63-13.49Q21.63-17.74 20.25-19.97L20.25-19.97Q18.67-22.6 14.66-22.64ZM31.88 0L31.88-19.73 42.33-19.73Q44.68-19.73 45.91-19.38 47.15-19.04 48.16-18.15L48.16-18.15Q50.23-16.24 50.23-12.15L50.23-12.15 50.23 0 44.8 0 44.8-12.76Q44.8-14.22 44.15-14.86 43.5-15.51 42-15.51L42-15.51 37.3-15.51 37.3 0 31.88 0ZM59.99-11.99L71.41-11.99 71.41-7.78 59.99-7.78Q60.15-5.83 61.24-5.02 62.34-4.21 64.81-4.21L64.81-4.21 71.41-4.21 71.41 0 64.2 0Q61.85 0 60.37-0.43 58.89-0.85 57.6-1.82L57.6-1.82Q53.99-4.62 53.99-10.13L53.99-10.13Q53.99-13.69 55.9-16.36L55.9-16.36Q57.19-18.19 59.01-18.96 60.84-19.73 63.79-19.73L63.79-19.73 71.41-19.73 71.41-15.51 64.2-15.51Q61.97-15.51 61.08-14.76 60.19-14.01 59.99-11.99L59.99-11.99ZM89.39 0L75.82 0 75.82-4.82 88.18-4.82Q91.13-4.82 92.11-5.39L92.11-5.39Q93.52-6.24 93.52-7.94L93.52-7.94Q93.52-9.92 91.86-10.81L91.86-10.81Q90.93-11.34 88.87-11.34L88.87-11.34 83.84-11.34Q79.27-11.34 77.24-13L77.24-13Q75.99-14.05 75.28-15.63 74.57-17.21 74.57-19.04L74.57-19.04Q74.57-21.87 76.23-24.22L76.23-24.22Q77.85-26.49 81.41-26.89L81.41-26.89Q82.63-27.02 85.02-27.02L85.02-27.02 98.42-27.02 98.42-22.2 86.31-22.2Q83.6-22.16 82.71-21.95L82.71-21.95Q80.89-21.51 80.89-19.2L80.89-19.2Q80.89-17.25 82.43-16.61L82.43-16.61Q83.44-16.12 85.83-16.12L85.83-16.12 90.16-16.12Q93.48-16.12 95.1-15.55L95.1-15.55Q97.98-14.58 99.07-12.15L99.07-12.15Q99.92-10.21 99.92-7.98L99.92-7.98Q99.92-5.51 98.79-3.56L98.79-3.56Q97.21-0.81 94.05-0.24L94.05-0.24Q92.51 0 89.39 0L89.39 0ZM101.99-19.73L105.43-19.73 105.43-27.02 110.86-27.02 110.86-19.73 115.88-19.73 115.88-15.51 110.86-15.51 110.86-8.34Q110.86-5.83 111.31-5.18L111.31-5.18Q111.99-4.21 113.74-4.21L113.74-4.21 115.88-4.21 115.88 0 111.95 0Q108.43 0 106.93-1.7 105.43-3.4 105.43-7.41L105.43-7.41 105.43-15.51 101.99-15.51 101.99-19.73ZM128.68-20.01L128.68-20.01Q134.15-20.01 136.74-16.85L136.74-16.85Q139.13-13.97 139.13-9.6L139.13-9.6Q139.13-4.98 136.13-2.23L136.13-2.23Q133.38 0.28 128.6 0.28L128.6 0.28Q123.66 0.28 120.86-2.55L120.86-2.55Q118.27-5.1 118.27-10L118.27-10Q118.27-14.14 120.74-16.89L120.74-16.89Q123.5-19.97 128.68-20.01ZM128.72-15.88L128.72-15.88Q123.82-15.88 123.82-9.8L123.82-9.8Q123.82-7.33 124.63-6.04L124.63-6.04Q125.97-3.85 128.76-3.85L128.76-3.85Q133.58-3.85 133.58-9.88L133.58-9.88Q133.58-15.8 128.72-15.88ZM143.14 0L143.14-19.73 151.16-19.73Q153.63-19.73 154.99-19.38 156.35-19.04 157.24-18.23L157.24-18.23Q158.13-17.42 158.49-16.2 158.86-14.99 158.86-12.72L158.86-12.72 158.86-10.81 153.63-10.81 153.63-11.87Q153.63-13.97 152.9-14.74 152.17-15.51 150.11-15.51L150.11-15.51 148.57-15.51 148.57 0 143.14 0ZM166.8-11.99L178.22-11.99 178.22-7.78 166.8-7.78Q166.96-5.83 168.05-5.02 169.14-4.21 171.62-4.21L171.62-4.21 178.22-4.21 178.22 0 171.01 0Q168.66 0 167.18-0.43 165.7-0.85 164.41-1.82L164.41-1.82Q160.8-4.62 160.8-10.13L160.8-10.13Q160.8-13.69 162.7-16.36L162.7-16.36Q164-18.19 165.82-18.96 167.65-19.73 170.6-19.73L170.6-19.73 178.22-19.73 178.22-15.51 171.01-15.51Q168.78-15.51 167.89-14.76 167-14.01 166.8-11.99L166.8-11.99Z" transform="translate(-1.2999999523162842, 27.18000030517578)"></path></g> <!----> <!----> <!----> <!----> <!----> <!----> <!----></g></g> <g data-gra="path-slogan" fill-rule="" class="tp-slogan iconsvg-slogansvg" fill="#333" transform="translate(59.04999923706055,33.46000099182129)"><!----> <!----> <g transform="scale(1, 1)"><g transform="scale(1)"><path d="M6.09-9.70L6.09-9.70Q7.41-9.70 7.45-9.56L7.45-9.56Q7.45-9.52 7.41-9.42L7.41-9.42Q7.27-9.05 7.22-8.39L7.22-8.39Q7.17-7.88 7.17-6.28L7.17-6.28L9.66-6.28Q10.78-6.28 11.02-6.33L11.02-6.33L11.02-5.39Q10.83-5.44 9.66-5.44L9.66-5.44L7.17-5.44Q7.31-3.75 7.69-2.44L7.69-2.44Q8.72-3.75 9.14-4.88L9.14-4.88Q10.22-4.36 10.27-4.22L10.27-4.22Q10.27-4.13 10.08-4.03L10.08-4.03Q9.84-3.89 9.75-3.75L9.75-3.75Q9.70-3.66 9.56-3.47L9.56-3.47Q8.81-2.34 8.06-1.64L8.06-1.64Q8.72-0.47 9.80-0.05L9.80-0.05Q10.08-0.05 10.17-1.41L10.17-1.41Q10.73-0.80 11.25-0.61L11.25-0.61Q10.73 1.13 10.27 1.13L10.27 1.13Q8.81 1.13 7.36-0.98L7.36-0.98Q6.28-0.19 5.02 0.42L5.02 0.42Q4.73 0 4.27-0.28L4.27-0.28Q4.17-0.33 4.17-0.33L4.17-0.33Q5.67-0.80 6.94-1.78L6.94-1.78Q6.38-3.56 6.33-5.44L6.33-5.44L3.94-5.44L3.94-3.75Q4.59-3.89 5.39-4.22L5.39-4.22Q5.63-4.27 5.72-4.31L5.72-4.31L5.67-3.23Q5.44-3.19 5.06-3.09L5.06-3.09Q4.69-3.05 3.94-2.86L3.94-2.86L3.94-0.14Q4.13 0.75 1.92 0.98L1.92 0.98Q1.92 0.47 1.64 0L1.64 0Q1.59-0.09 1.59-0.14L1.59-0.14Q3 0 3.05-0.61L3.05-0.61L3.05-2.63Q1.59-2.25 0.89-1.88L0.89-1.88L0.52-3.05Q1.83-3.23 3.05-3.56L3.05-3.56L3.05-5.44L1.97-5.44Q0.89-5.44 0.66-5.39L0.66-5.39L0.66-6.33Q0.84-6.28 1.92-6.28L1.92-6.28L3.05-6.28L3.05-7.83Q3.09-7.78 2.30-7.59L2.30-7.59Q1.64-7.45 1.22-7.36L1.22-7.36Q1.03-7.88 0.70-8.30L0.70-8.30Q2.72-8.34 4.88-9.28L4.88-9.28Q5.02-9.09 5.30-8.86L5.30-8.86Q5.81-8.34 5.72-8.30L5.72-8.30Q5.67-8.20 5.44-8.20L5.44-8.20Q4.73-8.20 3.94-8.02L3.94-8.02L3.94-6.28L6.28-6.28Q6.28-8.16 6.09-9.70ZM8.11-8.48L9-9.09Q9.75-8.30 10.36-7.31L10.36-7.31L9.42-6.70Q8.95-7.64 8.11-8.48L8.11-8.48ZM20.39-8.67L15.70-8.67L15.70-7.73L20.39-7.73L20.39-8.67ZM20.39-6.98L15.70-6.98L15.70-6L20.39-6L20.39-6.98ZM14.81-4.41L14.81-4.41L21.09-4.41Q22.17-4.41 23.11-4.50L23.11-4.50L23.11-3.47Q22.31-3.56 21.09-3.56L21.09-3.56L18.42-3.56L18.42-2.44L19.73-2.44Q20.72-2.44 21.84-2.53L21.84-2.53L21.84-1.55Q21.38-1.59 19.78-1.59L19.78-1.59L18.42-1.59L18.42-0.14Q20.67-0.09 21.33-0.14L21.33-0.14Q22.13-0.14 23.44-0.28L23.44-0.28Q22.97 0.28 22.78 0.84L22.78 0.84Q17.95 0.75 17.06 0.38L17.06 0.38Q15.56-0.09 15.09-1.31L15.09-1.31Q14.34 0.05 13.41 0.98L13.41 0.98Q12.98 0.61 12.28 0.38L12.28 0.38Q14.34-0.98 14.72-3.23L14.72-3.23Q16.17-3 16.03-2.86L16.03-2.86Q16.03-2.81 15.89-2.67L15.89-2.67Q15.75-2.58 15.70-2.44L15.70-2.44Q15.66-2.39 15.61-2.30L15.61-2.30Q15.52-2.11 15.47-1.97L15.47-1.97Q16.13-0.75 17.44-0.28L17.44-0.28L17.44-3.56L14.77-3.56Q13.78-3.56 12.89-3.47L12.89-3.47L12.89-4.55Q13.73-4.41 14.81-4.41ZM14.67-9.52L14.67-9.52Q15.33-9.42 16.17-9.42L16.17-9.42L19.59-9.42Q20.30-9.42 21.47-9.52L21.47-9.52Q21.38-8.77 21.42-8.39L21.42-8.39L21.42-6.47Q21.38-5.67 21.52-5.16L21.52-5.16Q20.63-5.25 20.25-5.25L20.25-5.25L15.80-5.25Q15.33-5.25 14.63-5.16L14.63-5.16Q14.72-5.72 14.72-6.38L14.72-6.38L14.72-8.30Q14.72-8.77 14.67-9.52ZM29.44-9.84L29.44-9.84Q30-9.84 30.56-9.75L30.56-9.75Q30.75-9.70 30.61-9.42L30.61-9.42Q30.47-9.23 30.47-9.14L30.47-9.14L30.47-8.25L33.80-8.25Q34.69-8.25 34.97-8.34L34.97-8.34L34.97-7.27Q34.31-7.41 33.80-7.36L33.80-7.36L31.31-7.36Q32.91-5.67 35.63-5.48L35.63-5.48Q35.25-5.20 34.83-4.31L34.83-4.31Q31.36-5.53 30.47-7.31L30.47-7.31L30.47-5.91Q30.47-5.06 30.56-4.78L30.56-4.78L29.44-4.78Q29.53-5.11 29.53-5.86L29.53-5.86L29.53-7.31Q28.92-6.38 27.75-5.53L27.75-5.53Q26.16-4.50 25.22-4.17L25.22-4.17Q24.84-4.73 24.23-5.06L24.23-5.06Q27-5.77 28.50-7.36L28.50-7.36L26.34-7.36Q25.45-7.36 24.98-7.27L24.98-7.27L24.98-8.34Q25.36-8.25 26.34-8.25L26.34-8.25L29.48-8.25Q29.48-9.33 29.44-9.84ZM33.33-4.55L33.33-4.55L33.33-3.66Q32.34-3.52 30.56-2.34L30.56-2.34L30.56-2.11L33.84-2.11Q34.64-2.11 35.06-2.20L35.06-2.20L35.06-1.13Q34.41-1.27 33.84-1.27L33.84-1.27L30.56-1.27L30.56 0.38Q30.66 1.17 28.55 1.31L28.55 1.31Q28.41 0.75 28.08 0.19L28.08 0.19Q29.72 0.47 29.58-0.09L29.58-0.09L29.58-1.22L26.16-1.22Q25.22-1.22 24.75-1.13L24.75-1.13L24.75-2.20Q25.17-2.11 26.16-2.11L26.16-2.11L29.58-2.11L29.58-2.81Q30.33-3.14 31.36-3.70L31.36-3.70L27.70-3.70Q27.19-3.70 26.39-3.66L26.39-3.66L26.39-4.55Q26.86-4.45 27.70-4.45L27.70-4.45L29.53-4.45L31.88-4.45Q32.91-4.45 33.33-4.55ZM44.72-6.89L44.72-8.20L42.23-8.20L42.23-6.89L44.72-6.89ZM41.34-6.89L41.34-8.20L38.91-8.20L38.91-6.89L41.34-6.89ZM41.34-6.19L38.91-6.19L38.91-4.69L41.34-4.69L41.34-6.19ZM44.77-6.19L42.23-6.19L42.23-4.69L44.77-4.69L44.77-6.19ZM41.34-3.09L42.28-3.42Q42.89-2.53 43.27-1.64L43.27-1.64L42.23-1.27Q41.86-2.30 41.34-3.09L41.34-3.09ZM44.58-2.63L45.52-3.14Q46.27-2.39 47.16-1.03L47.16-1.03L46.08-0.42Q45.52-1.64 44.58-2.63L44.58-2.63ZM39.47-2.91L39.47-2.91Q40.64-2.91 40.69-2.77L40.69-2.77Q40.69-2.72 40.64-2.63L40.64-2.63Q40.45-2.34 40.45-2.02L40.45-2.02L40.45-0.94Q40.17-0.09 42.28-0.19L42.28-0.19Q44.11 0.05 44.02-1.55L44.02-1.55Q44.58-1.13 45.09-0.94L45.09-0.94Q44.77 0.23 44.34 0.38L44.34 0.38Q44.02 0.66 42.28 0.61L42.28 0.61Q40.36 0.61 39.98 0.42L39.98 0.42Q39.47 0.23 39.52-0.56L39.52-0.56L39.52-2.02Q39.52-2.44 39.47-2.91ZM37.55-2.81L38.67-2.53Q38.06-0.56 37.73 0.09L37.73 0.09Q37.27-0.09 36.66-0.09L36.66-0.09Q37.08-1.17 37.55-2.81L37.55-2.81ZM45.80-9.14L45.80-9.14Q45.70-8.63 45.70-7.83L45.70-7.83L45.70-5.20Q45.66-4.31 45.80-3.75L45.80-3.75Q45.28-3.84 44.25-3.84L44.25-3.84L39.19-3.84Q38.58-3.84 37.83-3.70L37.83-3.70Q37.97-4.27 37.97-4.88L37.97-4.88L37.97-7.69Q37.97-8.48 37.83-9.14L37.83-9.14Q38.39-9.05 39.33-9.05L39.33-9.05L44.39-9.05Q45.47-9.05 45.80-9.14ZM58.08-9.56L58.08-9.56Q58.97-8.39 58.73-8.34L58.73-8.34Q58.69-8.34 58.55-8.34L58.55-8.34Q58.22-8.44 57.89-8.39L57.89-8.39Q56.63-8.25 56.06-8.16L56.06-8.16L56.06-6.38L57.89-6.38Q59.20-6.38 59.34-6.42L59.34-6.42L59.34-5.39Q58.83-5.48 57.94-5.48L57.94-5.48L56.06-5.48L56.06-3.84L57.28-3.84Q57.89-3.84 58.36-3.89L58.36-3.89Q58.31-3.28 58.31-2.86L58.31-2.86L58.31-0.56Q58.31 0.98 58.36 1.03L58.36 1.03L57.28 1.03Q57.38 0.70 57.38 0.09L57.38 0.09L53.95 0.09Q53.95 0.94 54 1.08L54 1.08L52.92 1.08Q53.02 0.70 53.02-0.66L53.02-0.66L53.02-2.86Q53.02-3.42 52.97-3.94L52.97-3.94Q53.34-3.84 54.14-3.84L54.14-3.84L55.08-3.84L55.08-5.48L53.72-5.48Q53.25-5.48 52.73-5.44L52.73-5.44L52.73-6.47Q53.16-6.38 53.67-6.38L53.67-6.38L55.08-6.38L55.08-8.06Q54.84-8.02 54-7.92L54-7.92Q53.30-7.78 52.92-7.73L52.92-7.73Q52.69-8.39 52.27-8.81L52.27-8.81Q55.13-8.72 58.08-9.56ZM57.38-3L53.95-3L53.95-0.66L57.38-0.66L57.38-3ZM52.73-5.30L52.73-5.30L51.80-4.97Q51.70-5.77 51.33-7.08L51.33-7.08Q51.28-7.13 51.28-7.17L51.28-7.17L52.17-7.41Q52.59-6.14 52.73-5.30ZM50.16-9.70L50.16-9.70Q51.33-9.70 51.38-9.56L51.38-9.56Q51.38-9.52 51.33-9.47L51.33-9.47Q51.19-9.14 51.19-8.72L51.19-8.72L51.19-0.94Q51.19 0.94 51.23 1.03L51.23 1.03L50.16 1.03Q50.20 0.84 50.20-0.98L50.20-0.98L50.20-8.25Q50.20-8.91 50.16-9.70ZM48.75-7.08L48.75-7.08Q49.36-6.94 49.83-6.89L49.83-6.89Q49.64-5.53 49.31-3.84L49.31-3.84Q48.66-4.03 48.28-3.94L48.28-3.94Q48.70-5.11 48.75-7.08Z" transform="translate(-0.515625, 9.84375)"></path></g></g></g></g></g><defs v-gra="od"></defs></svg>